<svg xmlns="http://www.w3.org/2000/svg" width="1400" height="420" viewBox="0 0 1400 420" role="img" aria-labelledby="title desc">
  <title id="title">SithAssembly SithInsta</title>
  <desc id="desc">Evidence in, connections out. A local-first intelligence workbench.</desc>
  <defs>
    <pattern id="grid" width="40" height="40" patternUnits="userSpaceOnUse">
      <path d="M40 0H0V40" fill="none" stroke="#262626" stroke-width="1"/>
    </pattern>
    <linearGradient id="fade" x1="0" y1="0" x2="1" y2="0">
      <stop offset="0" stop-color="#E64141" stop-opacity="0.35"/>
      <stop offset="0.55" stop-color="#E64141" stop-opacity="0.05"/>
      <stop offset="1" stop-color="#E64141" stop-opacity="0"/>
    </linearGradient>
  </defs>

  <rect width="1400" height="420" fill="#0B0B0C"/>
  <rect width="1400" height="420" fill="url(#grid)" opacity="0.7"/>
  <path d="M0 330L690 0H920L220 420H0Z" fill="url(#fade)"/>
  <path d="M0 359L747 0" fill="none" stroke="#E64141" stroke-width="3"/>
  <path d="M40 420L845 33" fill="none" stroke="#E64141" stroke-width="1" opacity="0.55"/>

  <g transform="translate(1050 70)" fill="none" stroke-linecap="square">
    <circle cx="120" cy="120" r="104" stroke="#302F30" stroke-width="2"/>
    <circle cx="120" cy="120" r="62" stroke="#E64141" stroke-width="2"/>
    <path d="M120 16V224M16 120H224M46 46L194 194M194 46L46 194" stroke="#302F30" stroke-width="1"/>
    <path d="M120 58L174 151H66Z" stroke="#E7E1D5" stroke-width="4"/>
    <circle cx="120" cy="120" r="9" fill="#E64141" stroke="none"/>
    <circle cx="120" cy="58" r="6" fill="#E7E1D5" stroke="none"/>
    <circle cx="174" cy="151" r="6" fill="#E7E1D5" stroke="none"/>
    <circle cx="66" cy="151" r="6" fill="#E7E1D5" stroke="none"/>
  </g>

  <g font-family="Consolas, 'Courier New', monospace">
    <text x="82" y="84" fill="#E64141" font-size="18" font-weight="700" letter-spacing="5">SITHASSEMBLY // NETWORK INTELLIGENCE</text>
    <text x="78" y="188" fill="#F0EBE0" font-size="72" font-weight="700" letter-spacing="2">SITHINSTA</text>
    <text x="82" y="244" fill="#E64141" font-size="28" font-weight="700" letter-spacing="3">EVIDENCE IN. CONNECTIONS OUT.</text>
    <text x="82" y="301" fill="#B9B4AA" font-size="20" letter-spacing="1">LOCAL-FIRST  /  TRACEABLE  /  HUMAN-REVIEWED</text>
    <text x="82" y="365" fill="#77736C" font-size="15" letter-spacing="2">CASEWORK  ::  TIMELINES  ::  GRAPHS  ::  MODEL-ASSISTED REVIEW</text>
  </g>

  <path d="M82 112H980" stroke="#E7E1D5" stroke-width="1" opacity="0.35"/>
  <path d="M82 326H920" stroke="#E64141" stroke-width="2"/>
  <rect x="1295" y="36" width="54" height="8" fill="#E64141"/>
  <rect x="1327" y="52" width="22" height="8" fill="#E7E1D5"/>
</svg>
